<?xml version="1.0" encoding="UTF-8"?>
<svg width="700pt" height="700pt" version="1.1" viewBox="0 0 700 700" xmlns="http://www.w3.org/2000/svg" xmlns:xlink="http://www.w3.org/1999/xlink">
 <defs>
  <symbol id="w" overflow="visible">
   <path d="m24.156-1.4375c-1.2422 0.64844-2.5391 1.1328-3.8906 1.4531-1.3438 0.33203-2.75 0.5-4.2188 0.5-4.3867 0-7.8594-1.2227-10.422-3.6719-2.5547-2.4453-3.8281-5.7695-3.8281-9.9688 0-4.1953 1.2734-7.5195 3.8281-9.9688 2.5625-2.4453 6.0352-3.6719 10.422-3.6719 1.4688 0 2.875 0.16797 4.2188 0.5 1.3516 0.32422 2.6484 0.80859 3.8906 1.4531v5.4375c-1.25-0.85156-2.4922-1.4766-3.7188-1.875-1.2188-0.40625-2.5-0.60938-3.8438-0.60938-2.4297 0-4.3359 0.77734-5.7188 2.3281-1.3867 1.5547-2.0781 3.6875-2.0781 6.4062s0.69141 4.8555 2.0781 6.4062c1.3828 1.543 3.2891 2.3125 5.7188 2.3125 1.3438 0 2.625-0.19531 3.8438-0.59375 1.2266-0.39453 2.4688-1.0234 3.7188-1.8906z"/>
  </symbol>
  <symbol id="e" overflow="visible">
   <path d="m17.672-14.344c-0.55469-0.25781-1.1016-0.45312-1.6406-0.57812-0.54297-0.125-1.0898-0.1875-1.6406-0.1875-1.625 0-2.875 0.52344-3.75 1.5625-0.875 1.043-1.3125 2.5273-1.3125 4.4531v9.0938h-6.2969v-19.719h6.2969v3.2344c0.8125-1.2891 1.7422-2.2344 2.7969-2.8281 1.0508-0.59375 2.3125-0.89062 3.7812-0.89062 0.20703 0 0.42969 0.011719 0.67188 0.03125 0.25 0.023437 0.60938 0.058594 1.0781 0.10938z"/>
  </symbol>
  <symbol id="a" overflow="visible">
   <path d="m22.719-9.9062v1.7812h-14.734c0.14453 1.4805 0.67578 2.5898 1.5938 3.3281 0.91406 0.74219 2.1953 1.1094 3.8438 1.1094 1.3203 0 2.6758-0.19141 4.0625-0.57812 1.3945-0.39453 2.8281-0.99219 4.2969-1.7969v4.8594c-1.4922 0.5625-2.9805 0.99219-4.4688 1.2812-1.4922 0.28906-2.9805 0.4375-4.4688 0.4375-3.5742 0-6.3516-0.90625-8.3281-2.7188-1.9805-1.8203-2.9688-4.3672-2.9688-7.6406 0-3.2188 0.96875-5.75 2.9062-7.5938 1.9453-1.8438 4.625-2.7656 8.0312-2.7656 3.1016 0 5.582 0.9375 7.4375 2.8125 1.8633 1.8672 2.7969 4.3594 2.7969 7.4844zm-6.4844-2.1094c0-1.1953-0.35156-2.1602-1.0469-2.8906-0.69922-0.72656-1.6094-1.0938-2.7344-1.0938-1.2188 0-2.2148 0.34375-2.9844 1.0312-0.76172 0.67969-1.2344 1.6641-1.4219 2.9531z"/>
  </symbol>
  <symbol id="d" overflow="visible">
   <path d="m11.875-8.875c-1.3242 0-2.3203 0.22656-2.9844 0.67188-0.65625 0.44922-0.98438 1.1055-0.98438 1.9688 0 0.80469 0.26562 1.4297 0.79688 1.875 0.53906 0.44922 1.2852 0.67188 2.2344 0.67188 1.1875 0 2.1797-0.42188 2.9844-1.2656 0.8125-0.85156 1.2188-1.9219 1.2188-3.2031v-0.71875zm9.625-2.375v11.25h-6.3594v-2.9219c-0.84375 1.1992-1.7969 2.0742-2.8594 2.625-1.0547 0.53906-2.3359 0.8125-3.8438 0.8125-2.043 0-3.7031-0.59375-4.9844-1.7812-1.2734-1.1953-1.9062-2.75-1.9062-4.6562 0-2.3125 0.79688-4.0039 2.3906-5.0781 1.5938-1.082 4.0859-1.625 7.4844-1.625h3.7188v-0.5c0-0.98828-0.39844-1.7109-1.1875-2.1719-0.78125-0.46875-2.0078-0.70312-3.6719-0.70312-1.3438 0-2.6016 0.13672-3.7656 0.40625-1.168 0.26172-2.2461 0.66406-3.2344 1.2031v-4.7969c1.3438-0.33203 2.6953-0.58203 4.0625-0.75 1.3633-0.17578 2.7227-0.26562 4.0781-0.26562 3.5625 0 6.1289 0.70312 7.7031 2.1094 1.582 1.4062 2.375 3.6875 2.375 6.8438z"/>
  </symbol>
  <symbol id="c" overflow="visible">
   <path d="m9.9062-25.328v5.6094h6.5v4.5h-6.5v8.375c0 0.91797 0.17969 1.5391 0.54688 1.8594 0.36328 0.3125 1.0859 0.46875 2.1719 0.46875h3.2344v4.5156h-5.4062c-2.4922 0-4.2578-0.51562-5.2969-1.5469-1.0312-1.0391-1.5469-2.8047-1.5469-5.2969v-8.375h-3.1406v-4.5h3.1406v-5.6094z"/>
  </symbol>
  <symbol id="j" overflow="visible">
   <path d="m16.453-16.828v-10.578h6.3281v27.406h-6.3281v-2.8594c-0.875 1.168-1.8359 2.0234-2.875 2.5625-1.043 0.53906-2.25 0.8125-3.625 0.8125-2.4375 0-4.4375-0.96094-6-2.8906-1.5547-1.9375-2.3281-4.4258-2.3281-7.4688 0-3.0391 0.77344-5.5234 2.3281-7.4531 1.5625-1.9375 3.5625-2.9062 6-2.9062 1.3516 0 2.5547 0.27734 3.6094 0.82812 1.0508 0.54297 2.0156 1.3906 2.8906 2.5469zm-4.1562 12.766c1.3438 0 2.3672-0.49219 3.0781-1.4844 0.71875-0.98828 1.0781-2.4219 1.0781-4.2969s-0.35938-3.3047-1.0781-4.2969c-0.71094-0.98828-1.7344-1.4844-3.0781-1.4844s-2.3711 0.49609-3.0781 1.4844c-0.71094 0.99219-1.0625 2.4219-1.0625 4.2969s0.35156 3.3086 1.0625 4.2969c0.70703 0.99219 1.7344 1.4844 3.0781 1.4844z"/>
  </symbol>
  <symbol id="i" overflow="visible">
   <path d="m13.531-4.0625c1.3438 0 2.3672-0.49219 3.0781-1.4844 0.70703-0.98828 1.0625-2.4219 1.0625-4.2969s-0.35547-3.3047-1.0625-4.2969c-0.71094-0.98828-1.7344-1.4844-3.0781-1.4844-1.3555 0-2.3984 0.5-3.125 1.5-0.71875 0.99219-1.0781 2.418-1.0781 4.2812 0 1.8672 0.35938 3.2969 1.0781 4.2969 0.72656 0.99219 1.7695 1.4844 3.125 1.4844zm-4.2031-12.766c0.875-1.1562 1.8359-2.0039 2.8906-2.5469 1.0625-0.55078 2.2734-0.82812 3.6406-0.82812 2.4375 0 4.4297 0.96875 5.9844 2.9062 1.5625 1.9297 2.3438 4.4141 2.3438 7.4531 0 3.043-0.78125 5.5312-2.3438 7.4688-1.5547 1.9297-3.5469 2.8906-5.9844 2.8906-1.3672 0-2.5781-0.27344-3.6406-0.8125-1.0547-0.55078-2.0156-1.4062-2.8906-2.5625v2.8594h-6.2969v-27.406h6.2969z"/>
  </symbol>
  <symbol id="f" overflow="visible">
   <path d="m0.4375-19.719h6.3125l5.2969 13.375 4.5-13.375h6.3125l-8.2969 21.578c-0.83594 2.1953-1.8086 3.7344-2.9219 4.6094-1.1055 0.875-2.5703 1.3125-4.3906 1.3125h-3.6406v-4.1406h1.9688c1.0703 0 1.8477-0.17188 2.3281-0.51562 0.48828-0.33594 0.86719-0.94531 1.1406-1.8281l0.1875-0.54688z"/>
  </symbol>
  <symbol id="h" overflow="visible">
   <path d="m3.3125-26.297h6.7812v9.6094l9.7656-9.6094h7.875l-12.656 12.453 13.953 13.844h-8.4844l-10.453-10.359v10.359h-6.7812z"/>
  </symbol>
  <symbol id="v" overflow="visible">
   <path d="m3.0312-27.406h6.2969v27.406h-6.2969z"/>
  </symbol>
  <symbol id="u" overflow="visible">
   <path d="m3.0312-19.719h6.2969v19.719h-6.2969zm0-7.6875h6.2969v5.1562h-6.2969z"/>
  </symbol>
  <symbol id="t" overflow="visible">
   <path d="m3.3125-26.297h8.625l5.9844 14.078 6.0312-14.078h8.6094v26.297h-6.4062v-19.234l-6.0625 14.188h-4.2969l-6.0625-14.188v19.234h-6.4219z"/>
  </symbol>
  <symbol id="s" overflow="visible">
   <path d="m18.438-19.109v4.7969c-1.3555-0.5625-2.6641-0.98438-3.9219-1.2656-1.25-0.28125-2.4336-0.42188-3.5469-0.42188-1.1992 0-2.0898 0.15234-2.6719 0.45312-0.57422 0.29297-0.85938 0.75-0.85938 1.375 0 0.5 0.21875 0.88672 0.65625 1.1562 0.4375 0.27344 1.2227 0.46875 2.3594 0.59375l1.1094 0.17188c3.2266 0.40625 5.3984 1.0781 6.5156 2.0156 1.1133 0.9375 1.6719 2.4141 1.6719 4.4219 0 2.1055-0.77734 3.6875-2.3281 4.75-1.543 1.0547-3.8516 1.5781-6.9219 1.5781-1.3047 0-2.6523-0.10547-4.0469-0.3125-1.3984-0.20703-2.8242-0.51562-4.2812-0.92188v-4.7969c1.25 0.61719 2.5352 1.0742 3.8594 1.375 1.3203 0.30469 2.6602 0.45312 4.0156 0.45312 1.2383 0 2.1641-0.16406 2.7812-0.5 0.625-0.34375 0.9375-0.84766 0.9375-1.5156 0-0.5625-0.21484-0.97656-0.64062-1.25-0.42969-0.28125-1.2812-0.5-2.5625-0.65625l-1.1094-0.14062c-2.8047-0.35156-4.7734-1.0039-5.9062-1.9531-1.125-0.94531-1.6875-2.3906-1.6875-4.3281 0-2.0938 0.71094-3.6445 2.1406-4.6562 1.4375-1.0078 3.6328-1.5156 6.5938-1.5156 1.1641 0 2.3906 0.089844 3.6719 0.26562 1.2812 0.17969 2.6719 0.45312 4.1719 0.82812z"/>
  </symbol>
  <symbol id="b" overflow="visible">
   <path d="m12.422-15.688c-1.4062 0-2.4766 0.50781-3.2031 1.5156-0.73047 1-1.0938 2.4453-1.0938 4.3281 0 1.8867 0.36328 3.3359 1.0938 4.3438 0.72656 1 1.7969 1.5 3.2031 1.5 1.3633 0 2.4102-0.5 3.1406-1.5 0.72656-1.0078 1.0938-2.457 1.0938-4.3438 0-1.8828-0.36719-3.3281-1.0938-4.3281-0.73047-1.0078-1.7773-1.5156-3.1406-1.5156zm0-4.5156c3.3828 0 6.0312 0.91797 7.9375 2.75 1.9062 1.8359 2.8594 4.3711 2.8594 7.6094 0 3.2422-0.95312 5.7773-2.8594 7.6094-1.9062 1.8359-4.5547 2.75-7.9375 2.75-3.4062 0-6.0742-0.91406-8-2.75-1.918-1.832-2.875-4.3672-2.875-7.6094 0-3.2383 0.95703-5.7734 2.875-7.6094 1.9258-1.832 4.5938-2.75 8-2.75z"/>
  </symbol>
  <symbol id="g" overflow="visible">
   <path d="m22.859-12.016v12.016h-6.3438v-9.1875c0-1.707-0.042969-2.8828-0.125-3.5312-0.074219-0.64453-0.20312-1.1172-0.39062-1.4219-0.24219-0.40625-0.57422-0.72266-1-0.95312-0.41797-0.22656-0.89844-0.34375-1.4375-0.34375-1.3125 0-2.3516 0.51172-3.1094 1.5312-0.75 1.0117-1.125 2.4141-1.125 4.2031v9.7031h-6.2969v-19.719h6.2969v2.8906c0.95703-1.1562 1.9688-2.0039 3.0312-2.5469 1.0703-0.55078 2.2539-0.82812 3.5469-0.82812 2.2695 0 3.9922 0.70312 5.1719 2.1094 1.1875 1.3984 1.7812 3.4219 1.7812 6.0781z"/>
  </symbol>
  <symbol id="r" overflow="visible">
   <path d="m16-27.406v4.1406h-3.4844c-0.88672 0-1.5078 0.16406-1.8594 0.48438-0.35547 0.32422-0.53125 0.88672-0.53125 1.6875v1.375h5.3906v4.5h-5.3906v15.219h-6.2969v-15.219h-3.1406v-4.5h3.1406v-1.375c0-2.1445 0.59375-3.7344 1.7812-4.7656 1.1953-1.0312 3.0547-1.5469 5.5781-1.5469z"/>
  </symbol>
  <symbol id="q" overflow="visible">
   <path d="m21.312-16.453c0.78906-1.2188 1.7344-2.1445 2.8281-2.7812 1.1016-0.64453 2.3125-0.96875 3.625-0.96875 2.2695 0 3.9922 0.70312 5.1719 2.1094 1.1875 1.3984 1.7812 3.4219 1.7812 6.0781v12.016h-6.3281v-10.281c0.007813-0.15625 0.015625-0.3125 0.015625-0.46875 0.007812-0.16406 0.015625-0.40625 0.015625-0.71875 0-1.3945-0.21094-2.4062-0.625-3.0312-0.40625-0.625-1.0703-0.9375-1.9844-0.9375-1.1992 0-2.125 0.49609-2.7812 1.4844-0.64844 0.98047-0.98047 2.4023-1 4.2656v9.6875h-6.3438v-10.281c0-2.1875-0.1875-3.5938-0.5625-4.2188s-1.043-0.9375-2-0.9375c-1.2109 0-2.1484 0.49609-2.8125 1.4844-0.65625 0.99219-0.98438 2.4062-0.98438 4.25v9.7031h-6.3281v-19.719h6.3281v2.8906c0.78125-1.1133 1.6719-1.9531 2.6719-2.5156 1-0.57031 2.1016-0.85938 3.3125-0.85938 1.3633 0 2.5664 0.33594 3.6094 1 1.0508 0.65625 1.8477 1.5742 2.3906 2.75z"/>
  </symbol>
  <symbol id="p" overflow="visible">
   <path d="m22.859-12.016v12.016h-6.3438v-9.1562c0-1.7266-0.042969-2.9141-0.125-3.5625-0.074219-0.64453-0.20312-1.1172-0.39062-1.4219-0.24219-0.40625-0.57422-0.72266-1-0.95312-0.41797-0.22656-0.89844-0.34375-1.4375-0.34375-1.3125 0-2.3516 0.51172-3.1094 1.5312-0.75 1.0117-1.125 2.4141-1.125 4.2031v9.7031h-6.2969v-27.406h6.2969v10.578c0.95703-1.1562 1.9688-2.0039 3.0312-2.5469 1.0703-0.55078 2.2539-0.82812 3.5469-0.82812 2.2695 0 3.9922 0.70312 5.1719 2.1094 1.1875 1.3984 1.7812 3.4219 1.7812 6.0781z"/>
  </symbol>
  <symbol id="o" overflow="visible">
   <path d="m3.3125-26.297h7.5625l9.5625 18.031v-18.031h6.4375v26.297h-7.5781l-9.5625-18.031v18.031h-6.4219z"/>
  </symbol>
  <symbol id="n" overflow="visible">
   <path d="m2.8125-7.6719v-12.047h6.3438v1.9688c0 1.0742-0.007812 2.418-0.015625 4.0312-0.011719 1.6055-0.015625 2.6797-0.015625 3.2188 0 1.5859 0.039062 2.7305 0.125 3.4375 0.082031 0.69922 0.22266 1.2031 0.42188 1.5156 0.25 0.40625 0.58203 0.72656 1 0.95312 0.42578 0.21875 0.90625 0.32812 1.4375 0.32812 1.3203 0 2.3594-0.50391 3.1094-1.5156 0.75-1.0078 1.125-2.4102 1.125-4.2031v-9.7344h6.2969v19.719h-6.2969v-2.8594c-0.94922 1.1562-1.9531 2.0117-3.0156 2.5625-1.0625 0.53906-2.2344 0.8125-3.5156 0.8125-2.2812 0-4.0234-0.69531-5.2188-2.0938-1.1875-1.4062-1.7812-3.4375-1.7812-6.0938z"/>
  </symbol>
  <symbol id="m" overflow="visible">
   <path d="m3.3125-26.297h11.25c3.3438 0 5.9102 0.74609 7.7031 2.2344 1.7891 1.4922 2.6875 3.6055 2.6875 6.3438 0 2.7617-0.89844 4.8867-2.6875 6.375-1.793 1.4805-4.3594 2.2188-7.7031 2.2188h-4.4688v9.125h-6.7812zm6.7812 4.9219v7.3438h3.75c1.3125 0 2.3203-0.31641 3.0312-0.95312 0.71875-0.64453 1.0781-1.5547 1.0781-2.7344 0-1.1641-0.35938-2.0664-1.0781-2.7031-0.71094-0.63281-1.7188-0.95312-3.0312-0.95312z"/>
  </symbol>
  <symbol id="l" overflow="visible">
   <path d="m3.0312-19.719h6.2969v19.359c0 2.6445-0.63672 4.6602-1.9062 6.0469-1.2617 1.3945-3.0938 2.0938-5.5 2.0938h-3.125v-4.1406h1.0938c1.1953 0 2.0195-0.27344 2.4688-0.8125 0.44531-0.53125 0.67188-1.5938 0.67188-3.1875zm0-7.6875h6.2969v5.1562h-6.2969z"/>
  </symbol>
  <symbol id="k" overflow="visible">
   <path d="m18.969-19.109v5.1406c-0.86719-0.58203-1.7305-1.0156-2.5938-1.2969-0.85547-0.28125-1.7461-0.42188-2.6719-0.42188-1.7617 0-3.1328 0.51562-4.1094 1.5469-0.98047 1.0234-1.4688 2.4531-1.4688 4.2969s0.48828 3.2812 1.4688 4.3125c0.97656 1.0234 2.3477 1.5312 4.1094 1.5312 0.97656 0 1.9102-0.14453 2.7969-0.4375 0.89453-0.28906 1.7188-0.72266 2.4688-1.2969v5.1562c-0.99219 0.36719-1.9961 0.63281-3.0156 0.8125-1.0117 0.1875-2.0273 0.28125-3.0469 0.28125-3.5547 0-6.3359-0.91016-8.3438-2.7344-2.0117-1.832-3.0156-4.375-3.0156-7.625s1.0039-5.7852 3.0156-7.6094c2.0078-1.832 4.7891-2.75 8.3438-2.75 1.0312 0 2.0469 0.09375 3.0469 0.28125 1.0078 0.17969 2.0156 0.44922 3.0156 0.8125z"/>
  </symbol>
 </defs>
 <g>
  <path d="m349.03 560c-1.5859-1.0117-2.668-2.4531-3.6055-4.1133-6.5664-11.688-13.273-23.371-19.766-35.059-2.3086-4.1836-5.625-6.1328-10.531-6.0586-13.418 0.14453-26.836 0.070313-40.324 0.070313-1.2266 0-2.5234-0.070313-3.75-0.35938-2.2344-0.50391-2.957-1.8047-2.2344-3.9688 0.43359-1.3711 1.082-2.668 1.8047-3.8945 6.8516-12.047 13.707-24.094 20.633-36.07 0.43359-0.72266 0.86719-1.4414 1.2266-2.2344 0.86719-1.5859 0.86719-3.2461 0-4.832-0.28906-0.57812-0.64844-1.2266-0.9375-1.8047-6.6367-11.613-13.199-23.227-19.836-34.77-0.14453-0.28906-0.35938-0.57812-0.50391-0.86719-1.6602-3.2461-4.2578-4.543-7.7891-4.543-6.8516 0.14453-13.707 0.070312-20.559 0.070312-6.2031 0-12.336 0-18.539-0.070312-4.0391-0.14453-6.6367 1.5156-8.5859 4.9766-6.9258 12.262-13.922 24.527-20.992 36.789-0.64844 1.1523-1.3711 2.3789-2.1641 3.3906-1.4414 1.8047-2.957 1.875-4.3984 0.070312-0.72266-0.86719-1.3711-1.9492-1.9492-2.957-6.6367-11.688-13.273-23.371-19.91-34.988-0.50391-0.86719-1.0117-1.8047-1.5156-2.5977-2.0195-3.1016-4.832-4.6172-8.5117-4.6172h-9.1602-32.68c-1.1523 0-2.3789 0-3.5352-0.35938-1.8047-0.43359-2.4531-1.7305-2.0195-3.4609 0.28906-1.0117 0.79297-2.0195 1.2969-3.0312 7.0703-12.406 14.141-24.816 21.352-37.152 1.9492-3.3164 1.875-6.1328 0-9.4492-7.2148-12.336-14.281-24.742-21.352-37.152-0.35938-0.64844-0.72266-1.3711-1.0117-2.0195-0.9375-2.5234-0.14453-3.8945 2.3789-4.3984 1.082-0.21484 2.1641-0.28906 3.2461-0.28906h37.801 5.8438c2.4531-0.070312 4.3281-1.2969 5.5547-3.3906 0.43359-0.72266 0.86719-1.4414 1.2969-2.1641 6.4219-11.324 12.77-22.652 19.332-33.906 1.9492-3.3164 1.875-6.1328 0-9.4492-6.7812-11.688-13.418-23.445-19.98-35.273-1.8047-3.2461-4.2578-4.543-7.7891-4.543-6.2773 0.070312-12.48 0.14453-18.754 0.070312-8.0781 0-16.23 0-24.309-0.070312-1.0117 0-2.0195 0-3.0312-0.21484-1.8047-0.28906-2.5234-1.3711-2.0195-3.1016 0.28906-1.1523 0.86719-2.1641 1.4414-3.2461 6.8516-12.117 13.777-24.238 20.703-36.355 0.50391-0.86719 1.0117-1.7305 1.5156-2.668 1.0117-2.0195 1.082-4.0391 0-6.0586-0.35938-0.72266-0.86719-1.4414-1.2266-2.2344-6.6367-11.613-13.199-23.156-19.836-34.77-0.72266-1.2969-1.5156-2.668-1.9492-4.1133-0.72266-2.2344 0.070312-3.6055 2.3789-4.1133 1.0117-0.21484 2.0195-0.21484 3.0312-0.21484h39.027 3.0312c2.8867 0 5.2656-1.2266 6.9961-3.5352 0.79297-1.082 1.5156-2.2344 2.1641-3.3906 6.8516-11.977 13.633-23.949 20.414-35.926 0.50391-0.86719 1.082-1.7305 1.8047-2.4531 1.2969-1.3711 2.8867-1.3711 4.2578 0 0.72266 0.79297 1.3711 1.7305 1.9492 2.668 6.9258 12.191 13.922 24.383 20.848 36.574 0.43359 0.72266 0.86719 1.4414 1.2969 2.1641 1.5859 2.668 3.8945 3.8945 6.9258 3.8242h40.324c3.2461 0 5.625-1.2969 7.2852-4.1836 6.6367-11.688 13.344-23.301 19.98-34.988 1.9492-3.3906 1.9492-6.7812 0.21484-10.172-0.79297-1.5859-1.7305-3.1016-2.5977-4.6172-5.9141-10.316-11.832-20.633-17.746-31.02-0.79297-1.3711-1.5156-2.8125-2.0195-4.3281-0.64844-1.875 0.070312-3.1758 2.0195-3.6797 1.3711-0.35938 2.8125-0.43359 4.2578-0.43359h40.543c1.082 0 2.1641 0 3.2461-0.21484 2.2344-0.28906 3.9688-1.4414 5.1953-3.2461 0.57813-0.86719 1.082-1.7305 1.5859-2.5977 6.4219-11.398 12.84-22.797 19.332-34.191 0.79297-1.3711 1.7305-2.7422 2.8125-3.8945 1.4414-1.4414 3.0312-1.4414 4.4727 0 1.082 1.082 2.0195 2.3086 2.7422 3.6055 6.2773 10.965 12.695 21.93 18.684 33.109 2.8867 5.4102 6.7812 7.7188 12.984 7.5742 13.199-0.28906 26.328-0.070312 39.531-0.070312 0.9375 0 1.875 0 2.7422 0.21484 2.2344 0.50391 3.1016 1.9492 2.3789 4.1133-0.35938 1.0117-0.79297 2.0195-1.3711 2.957-6.2773 10.965-12.48 22.074-19.043 32.895-3.6797 6.0586-3.75 11.324 0 17.457 5.9883 9.5938 11.398 19.551 17.023 29.359 0.35938 0.64844 0.72266 1.2969 1.1523 2.0195 1.7305 3.0312 4.3281 4.3984 7.7188 4.3281 4.3984-0.070313 8.8008-0.14453 13.199-0.14453 8.4414 0 16.879 0 25.32 0.14453 4.3984 0.070312 7.3594-1.5156 9.4492-5.4102 6.4922-11.758 13.199-23.371 19.766-35.059 0.72266-1.2266 1.2266-2.5977 1.9492-3.8242 1.5859-2.7422 4.6172-2.8867 6.3477-0.28906 0.86719 1.2266 1.4414 2.668 2.1641 3.9688 6.707 11.758 13.418 23.445 19.98 35.273 2.0938 3.75 4.9766 5.3398 9.2344 5.3398 14.141-0.14453 28.207 0 42.344 0 1.5859 0 3.1758 0.14453 4.543 1.082v3.0312c-0.79297 1.4414-1.5859 2.8867-2.4531 4.3281-6.7812 11.977-13.488 23.949-20.414 35.852-1.7305 2.957-1.7305 5.5547 0 8.5117 3.3906 5.6992 6.707 11.543 9.9531 17.312 4.3281 7.7188 8.5859 15.508 12.84 23.227v2.5234c-1.0117 0.86719-2.2344 1.1523-3.5352 1.1523-2.8125 0-5.5547 0.14453-8.3672 0.14453-11.758 0-23.445 0-35.203-0.14453-4.1836 0-6.9258 1.5156-9.0156 5.1953-6.2031 11.109-12.625 22.145-18.973 33.184-0.43359 0.72266-0.86719 1.4414-1.2266 2.2344-1.2266 2.5234-1.2969 5.0508 0 7.5742 0.50391 1.082 1.1523 2.0938 1.7305 3.1016 6.2031 10.965 12.48 21.859 18.613 32.824 1.875 3.3164 4.2578 4.9062 8.1523 4.7617 5.1211-0.21484 10.316-0.14453 15.438-0.14453h24.309c1.5859 0 3.1758 0 4.832 0.070312 1.5156 0.070313 2.7422 0.72266 3.3164 2.3086v1.5156c-0.50391 1.082-0.86719 2.1641-1.4414 3.1758-6.9961 12.262-13.852 24.527-20.992 36.645-1.9492 3.3906-2.0938 6.3477 0 9.668 2.957 4.9062 5.7695 9.9531 8.5859 14.934 4.6875 8.2969 9.3047 16.59 13.996 24.887v2.0195c-0.86719 1.4414-2.1641 2.0195-3.75 2.0195h-2.5234c-13.344 0-26.691 0-40.035-0.14453-4.6172 0-7.8633 1.8047-10.098 5.7695-6.9961 12.625-14.141 25.176-21.207 37.801-0.86719 1.5859-1.9492 2.7422-3.8945 2.7422-1.875 0-2.8125-1.2266-3.6055-2.7422-1.3711-2.5977-2.7422-5.2656-4.1836-7.7891-5.8438-10.316-11.688-20.559-17.457-30.875-1.7305-3.1016-4.0391-4.832-7.7188-4.832h-40.543c-3.1758 0-5.4805 1.2969-7.0703 4.0391-6.707 11.832-13.488 23.59-20.199 35.418-1.2969 2.3086-1.8047 4.7617-1.0117 7.2852 0.35937 1.2266 1.0117 2.3086 1.5859 3.3906 6.5664 11.543 13.199 23.012 19.766 34.555 0.79297 1.3711 1.5156 2.8125 2.0195 4.3281 0.64844 1.9492-0.070312 3.3164-2.1641 3.8242-1.3711 0.35937-2.8125 0.43359-4.2578 0.43359h-40.254c-4.6172 0-7.8633 1.7305-10.027 5.8438-2.7422 5.1211-5.625 10.172-8.5117 15.293-3.8242 6.7812-7.7188 13.488-11.469 20.27-0.86719 1.5156-1.7305 2.8867-3.1758 3.8242h-2.5234zm1.082-463.55h-46.094c-3.6797 0-6.2773 1.3711-8.1523 4.543-6.8516 12.047-13.777 24.023-20.703 35.996-1.3711 2.3789-1.4414 4.6172-0.070312 6.9258 0.43359 0.72266 0.86719 1.4414 1.2969 2.1641 6.2031 10.895 12.336 21.715 18.539 32.605 0.43359 0.79297 0.9375 1.5859 1.4414 2.3789 1.4414 2.0938 3.4609 3.5352 5.9883 3.8945 1.8047 0.21484 3.6797 0.28906 5.5547 0.28906 12.336-0.14453 24.672-0.50391 37.008-0.50391 16.734 0 33.473 0.21484 50.137 0.50391 4.2578 0 7.4297-1.0117 9.668-4.9766 6.6367-11.832 13.418-23.66 20.27-35.348 1.7305-2.957 1.7305-5.5547 0-8.5117-6.6367-11.398-13.199-22.797-19.621-34.336-2.1641-3.8945-5.1211-5.625-9.5938-5.625-15.223 0.14453-30.441 0-45.59 0zm133.74 181.35c6.8516-0.070313 13.707-0.21484 20.559 0 3.0312 0 5.0508-1.082 6.5664-3.75 6.8516-12.262 13.777-24.453 20.777-36.574 1.5156-2.668 1.5156-4.9062 0-7.5039-15.727-27.27-31.379-54.609-46.961-82.02-1.875-3.3164-4.3281-4.7617-8.1523-4.7617-13.129 0.14453-26.188 0.14453-39.316 0-4.0391 0-6.6367 1.4414-8.5859 4.9766-6.2031 11.035-12.48 22.074-18.898 32.965-2.5234 4.2578-2.3789 8.1523 0 12.406 15.293 26.473 30.516 53.02 45.664 79.566 1.9492 3.3906 4.3984 4.9766 8.3672 4.832 6.6367-0.21484 13.344 0 20.055 0zm-27.773 139.22c6.3477 0.070313 12.695 0 18.973 0.14453 4.3984 0 7.6484-1.7305 10.027-5.2656 0.43359-0.64844 0.86719-1.2969 1.2266-1.9492 14.934-26.258 29.863-52.59 44.941-78.773 1.8047-3.1758 1.875-6.0586 0-9.2344-6.7812-11.613-13.418-23.301-19.91-34.988-1.7305-3.1016-3.8945-4.4727-7.5039-4.3984-12.695 0.14453-25.32 0-38.016 0h-4.3281c-2.0195 0-3.5352 0.9375-4.6875 2.5977-0.64844 1.0117-1.2266 2.0195-1.8047 3.0312-7.7891 13.633-15.508 27.34-23.301 40.973-7.5742 13.199-15.078 26.402-22.723 39.531-1.875 3.1758-1.875 5.9883 0 9.2344 6.707 11.324 13.199 22.797 19.695 34.266 1.875 3.3906 4.543 4.9766 8.4414 4.9062 6.3477-0.14453 12.695 0 18.973 0zm-239.71-139.22c6.1328 0 12.336-0.14453 18.469 0.14453 4.832 0.21484 8.1523-1.5156 10.605-5.7695 15.223-26.762 30.586-53.527 45.953-80.289 1.875-3.3164 1.875-6.2031 0-9.5234-6.4922-11.254-12.984-22.578-19.332-33.906-2.0938-3.75-4.9766-5.4102-9.2344-5.3398-8.4414 0.14453-16.879 0.14453-25.32 0.14453-4.3984 0-8.8008-0.14453-13.199-0.14453-3.6797 0-6.4922 1.5156-8.5117 4.6172-0.43359 0.72266-0.86719 1.4414-1.2969 2.1641-15.148 26.473-30.227 52.949-45.375 79.422-1.8047 3.1758-1.8047 5.8438 0 8.9453 6.707 11.543 13.344 23.082 19.91 34.77 1.875 3.3164 4.3281 4.9062 8.1523 4.7617 6.4219-0.14453 12.84 0 19.262 0zm133.89 98.035h-33.977-13.922c-2.8125 0-4.9062 1.082-6.2031 3.5352-0.21484 0.43359-0.50391 0.86719-0.72266 1.2969-6.6367 11.613-13.129 23.227-19.91 34.77-1.8047 3.1016-1.7305 5.625 0 8.7305 6.707 11.398 13.273 22.941 19.91 34.48 0.35937 0.64844 0.79297 1.2969 1.2266 1.9492 1.4414 2.0195 3.3164 3.0312 5.7695 3.1758h3.8242 86.203 5.8438c2.4531-0.070313 4.3984-1.1523 5.6992-3.2461 0.50391-0.79297 0.9375-1.5859 1.4414-2.3789 5.1211-9.0156 10.242-18.035 15.438-27.051 1.5156-2.7422 3.1016-5.4102 4.7617-8.0781 1.2266-2.0938 1.2969-4.1133 0.070312-6.2031-0.43359-0.72266-0.86719-1.4414-1.2266-2.1641-5.9141-10.316-11.902-20.633-17.816-30.945-0.86719-1.5156-1.7305-3.1016-2.668-4.6172-1.1523-1.9492-2.8867-3.0312-5.1953-2.957h-2.5234-45.879zm-106.47 41.191h20.27c3.3906 0 5.8438-1.2969 7.4297-4.2578 0.14453-0.21484 0.28906-0.43359 0.35938-0.64844 6.4219-11.254 12.77-22.508 19.188-33.688 0.35938-0.57812 0.64844-1.1523 0.9375-1.8047 1.0117-2.1641 1.082-4.3984 0-6.6367-0.35938-0.86719-0.86719-1.6602-1.2969-2.4531-15.223-26.617-30.441-53.238-45.59-79.855-0.50391-0.86719-1.0117-1.7305-1.5859-2.5977-1.082-1.5156-2.5977-2.3789-4.4727-2.4531h-2.8125-39.027c-3.6055 0-5.9883 1.2969-7.7891 4.4727-6.6367 11.688-13.344 23.301-20.125 34.914-1.875 3.1758-1.9492 5.9883 0 9.2344 5.1211 8.6562 10.098 17.387 15.078 26.113 10.316 18.105 20.703 36.211 30.875 54.465 2.2344 3.8945 5.0508 5.6992 9.5938 5.4805 6.3477-0.21484 12.695 0 19.043 0zm31.016-366.82c0.57812 1.2266 0.86719 2.0195 1.2969 2.7422 6.707 11.758 13.418 23.445 20.125 35.203 1.4414 2.5234 3.4609 3.75 6.3477 3.75h39.746c0.86719 0 1.7305-0.28906 2.957-0.50391-0.50391-1.2969-0.86719-2.3789-1.3711-3.3164-0.9375-1.8047-2.0195-3.5352-3.0312-5.2656-5.5547-9.668-11.18-19.262-16.734-28.926-1.4414-2.5234-3.3164-4.1133-6.4219-4.0391h-39.746c-0.86719 0-1.8047 0.21484-3.1016 0.35938zm70.621 418.39c-1.5156-0.14453-2.668-0.28906-3.8242-0.28906h-38.738c-3.0312 0-5.0508 1.2266-6.5664 3.8242-6.707 11.758-13.488 23.371-20.199 35.129-0.43359 0.79297-0.72266 1.5859-1.2969 2.7422 1.2266 0.14453 2.0195 0.28906 2.8125 0.28906h5.5547 34.191c2.668 0 4.7617-0.72266 6.2031-3.1016 6.9258-11.902 13.852-23.805 20.703-35.707 0.43359-0.79297 0.64844-1.6602 1.1523-2.8867zm80.074-418.46c-1.4414-0.14453-2.3086-0.28906-3.1758-0.28906h-39.531c-2.957 0-4.9766 1.1523-6.4219 3.6797-6.6367 11.688-13.418 23.301-20.055 34.914-0.50391 0.86719-0.79297 1.8047-1.1523 2.5977 1.1523 1.1523 2.3789 0.86719 3.5352 0.86719h38.016c3.6055 0 6.0586-1.2969 7.7891-4.4727 6.4219-11.398 12.984-22.723 19.477-34.047 0.50391-0.86719 0.86719-1.8047 1.5156-3.2461zm-70.332 419.12c0.50391 1.0117 0.9375 2.1641 1.5156 3.2461 6.2031 10.82 12.406 21.715 18.684 32.535 0.35938 0.57812 0.72266 1.1523 1.082 1.7305 1.7305 2.4531 4.1133 3.6055 7.1406 3.5352 12.84-0.070312 25.68 0 38.52-0.070312 0.9375 0 1.9492-0.21484 3.2461-0.35938-0.50391-1.1523-0.79297-2.0195-1.2266-2.8125-6.5664-11.398-13.199-22.797-19.695-34.266-1.875-3.2461-4.4727-4.7617-8.2969-4.6875-8.0078 0.14453-16.086 0.14453-24.094 0.14453-4.3984 0-8.8008-0.070312-13.199-0.070312-1.2266 0-2.5977-0.28906-3.75 1.082zm-239.71-325.7c0.50391 1.1523 0.72266 2.0195 1.1523 2.8125 1.082 1.9492 2.1641 3.8242 3.2461 5.6992 5.3398 9.4492 10.75 18.898 16.016 28.492 1.8047 3.2461 4.2578 4.832 8.0078 4.6172 2.3789-0.14453 4.7617-0.070312 7.0703-0.070312h30.441c1.2266 0 2.5234 0.21484 3.75-1.0117-0.35938-0.86719-0.72266-1.8047-1.1523-2.668-6.5664-11.543-13.129-23.012-19.621-34.625-1.4414-2.5977-3.4609-3.6797-6.3477-3.6797h-39.531c-0.86719 0-1.7305 0.21484-2.957 0.43359zm399.57 41.191c1.2969 0.070312 2.1641 0.21484 3.1016 0.21484h5.5547c11.254 0.21484 22.434 0.35937 33.688-0.35938 3.1016-0.21484 5.3398-1.4414 6.9258-4.2578 6.2773-11.18 12.77-22.289 19.117-33.473 0.50391-0.9375 0.86719-1.9492 1.2266-2.8867-1.082-1.2266-2.3086-1.0117-3.4609-1.0117h-38.016-2.3086c-2.0195 0.14453-3.4609 1.0117-4.4727 2.8125-6.7812 11.977-13.633 23.949-20.414 35.926-0.43359 0.72266-0.57812 1.6602-0.9375 2.8125zm-85.266 135.69c1.875-1.0117 2.5234-2.3789 3.2461-3.6797 5.9883-10.387 11.902-20.848 17.961-31.164 2.2344-3.75 2.3086-7.2148 0-10.895-2.8125-4.6172-5.4102-9.3047-8.1523-13.996-3.3906-5.9141-6.7812-11.902-10.172-17.816-0.64844-1.1523-1.2266-2.3789-2.8867-2.957-0.64844 0.86719-1.3711 1.6602-1.9492 2.5234-0.9375 1.4414-1.7305 2.8867-2.5234 4.3984-5.3398 9.3789-10.676 18.754-16.16 28.133-2.0195 3.4609-2.0938 6.5664 0 10.172 6.2773 10.676 12.336 21.57 18.469 32.316 0.57812 1.0117 1.2969 1.875 2.0938 3.0312zm-155.02-84.328c0.57812 1.2969 0.9375 2.2344 1.4414 3.0312 6.6367 11.469 13.273 22.941 19.836 34.48 1.7305 3.0312 3.8945 4.2578 7.3594 4.1836 6.8516-0.14453 13.707 0 20.488 0 5.9883 0 11.977 0.14453 17.961 0.14453 0.9375 0 1.9492-0.28906 2.957-0.43359 0.28906-1.5859-0.50391-2.668-1.082-3.75-6.5664-11.398-13.273-22.797-19.766-34.191-1.5156-2.668-3.6055-3.8945-6.5664-3.75-2.8125 0.070312-5.5547 0.14453-8.3672 0.070312-10.027 0-20.125 0-30.152-0.070312-1.2266 0-2.4531 0.21484-4.0391 0.35938zm150.7 0c-1.6602-0.14453-2.668-0.28906-3.75-0.28906-6.0586 0-12.191 0.070313-18.25 0.070313-6.707 0-13.344 0-20.055-0.14453-3.2461 0-5.625 1.1523-7.2852 4.0391-6.5664 11.688-13.273 23.371-19.91 35.059-0.43359 0.79297-0.72266 1.6602-1.1523 2.7422 1.5156 0.070312 2.5977 0.14453 3.6797 0.14453 12.625 0 25.176-0.070313 37.801 0 3.9688 0 6.4922-1.4414 8.3672-4.832 6.2773-11.18 12.695-22.363 18.973-33.473 0.50391-0.9375 0.86719-1.9492 1.5859-3.3906zm-70.621 46.672c0.64844 1.3711 0.9375 2.2344 1.3711 3.0312 6.4219 11.324 12.84 22.578 19.332 33.906 2.1641 3.8242 5.4805 5.2656 9.7383 4.9766 2.2344-0.14453 4.543-0.28906 6.8516-0.28906h29.648c1.082 0 2.0938-0.14453 3.6055-0.21484-0.43359-1.1523-0.72266-2.0195-1.1523-2.8125-6.6367-11.543-13.344-23.082-19.98-34.699-1.6602-2.957-4.0391-4.3984-7.4297-4.3281-2.668 0-5.4102 0.070313-8.0781 0.070313h-29.359c-1.2969 0-2.668 0.14453-4.4727 0.21484zm-84.688 37.945c1.0117-1.2969 1.7305-2.0938 2.2344-3.0312 6.6367-11.613 13.129-23.227 19.766-34.77 1.1523-2.0195 1.082-3.6797 0-5.625-6.6367-11.688-13.273-23.371-19.91-35.059-1.6602-2.957-2.5977-2.8867-4.3281-0.14453l-0.14453 0.21484c-6.4922 11.469-12.984 22.941-19.551 34.336-1.3711 2.3789-1.2969 4.6172 0 6.9258 6.4922 11.324 12.984 22.723 19.477 34.121 0.50391 0.9375 1.2969 1.6602 2.3086 2.957zm75.312-37.945c-1.5156-0.070312-2.3789-0.21484-3.3164-0.21484h-39.027c-3.2461 0-5.4102 1.2266-6.9961 4.0391-6.6367 11.613-13.418 23.227-20.125 34.844-0.43359 0.79297-0.72266 1.5859-1.2266 2.8125 1.6602 0.14453 2.8867 0.28906 4.1133 0.28906 8.4414 0 16.879 0 25.32-0.070312 4.543 0 9.0898 0 13.707 0.070312 2.5977 0 4.3984-1.0117 5.7695-3.3906 6.7812-11.832 13.707-23.66 20.559-35.492 0.43359-0.79297 0.72266-1.6602 1.2266-2.8867zm4.6875-90.242c-0.57812 0.79297-0.86719 1.2266-1.082 1.5859-6.9258 11.977-13.852 23.949-20.848 35.926-1.4414 2.5234-1.1523 4.6875 0.21484 7.1406 6.5664 11.398 13.129 22.797 19.695 34.266 0.50391 0.9375 1.2266 1.7305 2.0938 2.957 0.86719-1.2266 1.5859-2.0938 2.1641-3.1016 6.4922-11.254 12.914-22.578 19.477-33.762 1.6602-2.8125 1.5859-5.1211 0-8.0078-6.8516-11.613-13.562-23.371-20.344-35.059-0.28906-0.57812-0.72266-1.082-1.2969-1.875zm0 93.129c-0.72266 1.082-1.2266 1.6602-1.5859 2.2344-6.9258 11.977-13.777 24.023-20.703 35.996-1.1523 2.0195-1.082 3.75 0 5.6992 1.4414 2.3789 2.8125 4.832 4.1836 7.2148 5.0508 8.8008 10.098 17.531 15.148 26.328 0.72266 1.2969 1.2969 2.8125 3.2461 3.3164 0.64844-0.86719 1.4414-1.7305 2.0195-2.7422 6.4922-11.254 12.984-22.508 19.551-33.762 1.3711-2.3086 1.5859-4.3984 0-6.5664-0.070312-0.14453-0.14453-0.28906-0.28906-0.43359-6.707-11.613-13.418-23.227-20.125-34.844-0.43359-0.72266-0.9375-1.3711-1.6602-2.4531zm0-278.52c-1.082 1.5156-1.9492 2.4531-2.5234 3.4609-6.4219 11.109-12.84 22.219-19.262 33.254-1.4414 2.4531-1.3711 4.6875 0 7.1406 6.707 11.543 13.273 23.156 19.91 34.699 0.50391 0.86719 1.1523 1.5859 2.0195 2.668 0.86719-1.2266 1.5859-2.1641 2.1641-3.1016 2.0938-3.6055 4.1133-7.2148 6.1328-10.75 4.4727-7.7891 8.8711-15.508 13.418-23.227 1.3711-2.3789 1.6602-4.4727 0.14453-7.0703-6.6367-11.18-13.059-22.508-19.551-33.762-0.57812-1.0117-1.3711-1.875-2.4531-3.3164zm0 545.72c1.082-1.5156 2.0938-2.668 2.8125-3.9688 6.3477-10.895 12.625-21.785 19.043-32.605 1.5859-2.668 1.5156-4.9062 0-7.5039-6.707-11.543-13.344-23.082-20.055-34.625-0.43359-0.79297-1.0117-1.4414-1.8047-2.4531-0.86719 1.2969-1.5859 2.2344-2.1641 3.2461-3.3906 5.9141-6.7812 11.902-10.172 17.816-3.2461 5.625-6.4922 11.254-9.7383 16.879-1.082 1.875-1.3711 3.6055-0.14453 5.6992 6.9258 11.688 13.707 23.516 20.559 35.203 0.43359 0.72266 0.9375 1.2969 1.7305 2.3086zm-159.86-371.23c1.0117-1.5156 1.6602-2.5977 2.3086-3.6055 5.9141-10.027 11.758-20.125 17.602-30.227 0.86719-1.4414 1.5859-2.957 2.3086-4.4727 1.0117-2.2344 0.79297-4.4727-0.43359-6.5664-0.50391-0.9375-1.1523-1.875-1.7305-2.8125-1.2266-2.0195-2.5977-3.9688-3.75-5.9883-4.832-8.4414-9.668-16.879-14.5-25.246-0.50391-0.86719-1.1523-1.5859-1.9492-2.668-0.86719 1.2969-1.5859 2.2344-2.0938 3.2461-5.0508 8.8008-10.098 17.602-15.148 26.402-1.4414 2.5977-2.957 5.1211-4.4727 7.6484-1.2969 2.1641-1.2969 4.3281-0.14453 6.4922 0.28906 0.57812 0.64844 1.1523 1.0117 1.7305 6.2773 10.965 12.625 22 18.898 32.965 0.50391 0.9375 1.1523 1.8047 2.0938 3.1758zm319.78-82.234c-0.50391 0.72266-0.86719 1.2266-1.2266 1.8047-6.7812 11.977-13.488 23.949-20.414 35.926-1.5156 2.668-1.4414 4.9766 0 7.5742 6.6367 11.469 13.199 22.941 19.836 34.48 0.43359 0.72266 1.0117 1.4414 1.7305 2.4531 0.79297-1.2969 1.4414-2.1641 1.9492-3.1016 6.4219-11.109 12.695-22.289 19.262-33.328 1.875-3.1758 1.875-5.8438 0-8.9453-6.707-11.543-13.344-23.082-19.98-34.699-0.35938-0.64844-0.79297-1.2969-1.2969-2.0938zm-319.78 360.68c0.9375-1.2266 1.5859-1.9492 2.0938-2.8125 6.5664-11.324 13.059-22.652 19.621-33.977 1.4414-2.5234 1.4414-4.9062 0-7.4297-6.8516-11.832-13.633-23.734-20.488-35.562-0.28906-0.57812-0.79297-1.0117-1.3711-1.8047-0.72266 1.1523-1.2969 2.0938-1.875 3.0312-6.4219 11.324-12.77 22.652-19.332 33.906-1.7305 3.0312-1.7305 5.4805 0 8.4414 6.4219 10.965 12.77 22.074 19.117 33.109 0.50391 0.9375 1.2266 1.7305 2.1641 3.0312zm320-81.371c-0.50391 0.43359-0.72266 0.50391-0.86719 0.72266-0.50391 0.79297-1.0117 1.5859-1.4414 2.3789-5.1211 9.2344-10.098 18.539-16.086 27.27-0.9375 1.3711-1.6602 2.957-2.3086 4.4727-1.6602 4.1836-1.5859 8.4414 0.35938 12.551 0.64844 1.4414 1.5156 2.8125 2.3086 4.1836 3.1016 5.1953 6.3477 10.387 9.4492 15.582 2.5234 4.1836 4.832 8.5117 7.2852 12.77 0.28906 0.57812 0.79297 1.0117 1.2969 1.7305 0.50391-0.86719 0.9375-1.4414 1.2969-2.0938 3.1016-5.3398 6.1328-10.676 9.1602-16.016 3.8242-6.6367 7.5742-13.344 11.469-19.98 1.1523-1.9492 1.1523-3.6055 0-5.4102-0.21484-0.35938-0.43359-0.72266-0.64844-1.082-6.5664-11.469-13.199-23.012-19.766-34.48-0.43359-0.79297-1.0117-1.5156-1.5859-2.4531zm-394.3-49.414c-0.35938 1.6602 0.35938 2.668 0.9375 3.6797 6.2773 10.965 12.551 21.93 18.828 32.965 1.7305 3.0312 4.2578 4.3984 7.7188 4.3281h8.8711 28.133c1.4414 0 3.0312 0.070312 4.6172-0.79297-0.72266-1.4414-1.2969-2.7422-1.9492-3.9688-6.1328-10.895-12.406-21.715-18.469-32.605-1.5156-2.668-3.4609-4.0391-6.4922-3.8242h-2.0195c-12.262 0-24.453-0.070313-36.719-0.070313-1.082 0-2.1641 0.14453-3.3164 0.28906zm159.21-98.539c1.2969 0.070313 2.0195 0.14453 2.8125 0.14453h40.035c3.0312 0 5.1211-1.2969 6.5664-3.8945 6.2773-11.109 12.625-22.145 18.898-33.254 1.8047-3.1758 1.2969-3.9688-2.3086-4.0391h-11.688-26.836c-2.7422 0-4.832 0.64844-6.2773 3.2461-6.5664 11.758-13.199 23.371-19.836 35.059-0.43359 0.72266-0.72266 1.4414-1.2266 2.668zm309.83 185.61c-0.72266-1.5859-1.082-2.668-1.6602-3.6797-6.2031-10.895-12.551-21.785-18.684-32.75-1.6602-2.8867-3.8242-4.2578-7.1406-4.2578h-38.52c-1.0117 0-2.0938 0.28906-3.4609 0.50391 0.43359 1.2969 0.64844 2.2344 1.1523 3.1016 6.4922 11.398 12.984 22.723 19.406 34.121 1.3711 2.3789 3.2461 3.5352 5.9883 3.5352h39.746c0.86719 0 1.7305-0.28906 3.1758-0.57812zm-69.539-226c0.50391 1.2969 0.79297 2.3789 1.2969 3.3164 1.0117 1.875 2.0938 3.6797 3.1758 5.4805 5.2656 9.2344 10.531 18.469 15.727 27.773 1.5859 2.8125 3.6797 4.2578 6.9258 4.1133 3.3164-0.14453 6.5664 0 9.8828 0h29.145c1.0117 0 2.2344 0.28906 3.0312-1.082-0.35937-0.79297-0.64844-1.7305-1.1523-2.668-0.72266-1.4414-1.5859-2.8125-2.3789-4.1836-5.5547-9.668-11.109-19.332-16.59-29.07-1.5156-2.668-3.4609-4.2578-6.6367-4.2578h-39.242c-0.9375 0-1.875 0.28906-3.2461 0.57812zm-159.86 0.72266c0.43359 1.0117 0.86719 2.0938 1.4414 3.1016 6.2031 10.82 12.48 21.641 18.613 32.535 1.7305 3.0312 4.0391 4.543 7.5742 4.3281 3.5352-0.14453 7.0703 0 10.676 0h28.422c0.86719 0 1.7305-0.21484 2.957-0.43359-0.72266-1.4414-1.1523-2.5234-1.7305-3.5352-4.543-7.9336-9.0898-15.797-13.633-23.734-1.8047-3.1758-3.6797-6.2773-5.3398-9.5234-1.5156-2.8125-3.6797-4.2578-6.9258-4.0391-1.5859 0.14453-3.1758 0-4.832 0h-33.473c-1.2266 0-2.5234-0.21484-3.6797 1.2266zm229.39 138.43c-1.5859-0.21484-2.5977-0.43359-3.6797-0.43359-1.6602 0-3.3906 0.070312-5.0508 0.070312h-33.977c-2.957 0-4.9766 1.082-6.4219 3.6797-6.3477 11.18-12.695 22.289-19.043 33.473-0.57812 1.0117-0.86719 2.0938-1.5156 3.6055 1.5859 0.21484 2.7422 0.43359 3.8945 0.43359h24.816 13.707c2.957 0 5.0508-1.2266 6.5664-3.8945 6.2773-11.18 12.77-22.289 19.117-33.473 0.50391-0.9375 0.9375-1.9492 1.5859-3.4609zm-240.65 40.254c0.28906-1.7305-0.57812-2.8125-1.2266-3.9688-5.9883-10.676-12.117-21.281-18.105-31.957-1.875-3.3906-4.543-4.832-8.5117-4.7617-12.48 0.14453-25.031 0-37.512 0-1.1523 0-2.2344 0.21484-3.75 0.28906 0.57812 1.2969 0.86719 2.2344 1.3711 3.0312 6.4219 11.398 12.984 22.723 19.332 34.191 1.3711 2.5234 3.3906 3.6797 6.1328 3.6797 12.984 0 26.043 0 39.027-0.070312 1.082 0 2.0938-0.28906 3.1758-0.43359zm80.793-40.324c-1.5859-0.14453-2.8125-0.35938-4.0391-0.35938h-38.016c-3.3164 0-5.5547 1.1523-7.2148 4.1133-6.2031 11.035-12.625 22-18.898 32.965-1.9492 3.3906-1.4414 4.2578 2.4531 4.2578h37.727c3.3906 0 5.6992-1.2266 7.4297-4.1836 6.3477-11.254 12.84-22.434 19.188-33.617 0.50391-0.86719 0.79297-1.8047 1.3711-3.0312zm-309.54-98.758c1.082 0.14453 1.8047 0.28906 2.5977 0.28906h40.254c2.5977 0 4.4727-1.0117 5.7695-3.3164 6.4922-11.469 13.059-22.867 19.551-34.336 0.50391-0.86719 0.72266-1.8047 1.2266-3.0312-1.3711-0.21484-2.3086-0.43359-3.3164-0.50391h-7.3594-31.668c-2.8867 0-5.0508 1.0117-6.4922 3.6055-6.4922 11.543-13.059 23.082-19.551 34.555-0.43359 0.72266-0.64844 1.6602-1.0117 2.7422zm-0.21484 185.9c1.5859 0.14453 2.668 0.35938 3.75 0.35938h15.438 23.516c2.668 0 4.6875-0.86719 6.0586-3.3164 6.4922-11.469 13.059-22.867 19.551-34.336 0.50391-0.86719 0.72266-1.8047 1.2266-3.0312-1.4414-0.21484-2.4531-0.43359-3.5352-0.43359h-38.738c-3.1016 0-5.2656 1.2266-6.7812 3.9688-6.3477 11.324-12.77 22.652-19.188 33.906-0.43359 0.79297-0.72266 1.6602-1.3711 2.957z"/>
  <use x="108.59375" y="668.207031" xlink:href="#w"/>
  <use x="135.0625" y="668.207031" xlink:href="#e"/>
  <use x="152.851562" y="668.207031" xlink:href="#a"/>
  <use x="177.3125" y="668.207031" xlink:href="#d"/>
  <use x="201.652344" y="668.207031" xlink:href="#c"/>
  <use x="218.894531" y="668.207031" xlink:href="#a"/>
  <use x="243.355469" y="668.207031" xlink:href="#j"/>
  <use x="281.734375" y="668.207031" xlink:href="#i"/>
  <use x="307.550781" y="668.207031" xlink:href="#f"/>
  <use x="343.621094" y="668.207031" xlink:href="#h"/>
  <use x="371.570312" y="668.207031" xlink:href="#d"/>
  <use x="395.910156" y="668.207031" xlink:href="#f"/>
  <use x="419.421875" y="668.207031" xlink:href="#v"/>
  <use x="431.785156" y="668.207031" xlink:href="#u"/>
  <use x="444.148438" y="668.207031" xlink:href="#a"/>
  <use x="481.167969" y="668.207031" xlink:href="#t"/>
  <use x="517.058594" y="668.207031" xlink:href="#d"/>
  <use x="541.398438" y="668.207031" xlink:href="#s"/>
  <use x="562.867187" y="668.207031" xlink:href="#b"/>
  <use x="587.644531" y="668.207031" xlink:href="#g"/>
  <use x="108.59375" y="704.273438" xlink:href="#r"/>
  <use x="124.285156" y="704.273438" xlink:href="#e"/>
  <use x="142.074219" y="704.273438" xlink:href="#b"/>
  <use x="166.851562" y="704.273438" xlink:href="#q"/>
  <use x="216.992188" y="704.273438" xlink:href="#c"/>
  <use x="234.234375" y="704.273438" xlink:href="#p"/>
  <use x="259.910156" y="704.273438" xlink:href="#a"/>
  <use x="296.929688" y="704.273438" xlink:href="#o"/>
  <use x="327.117188" y="704.273438" xlink:href="#b"/>
  <use x="351.898438" y="704.273438" xlink:href="#n"/>
  <use x="377.574219" y="704.273438" xlink:href="#g"/>
  <use x="415.808594" y="704.273438" xlink:href="#m"/>
  <use x="442.246094" y="704.273438" xlink:href="#e"/>
  <use x="460.03125" y="704.273438" xlink:href="#b"/>
  <use x="484.8125" y="704.273438" xlink:href="#l"/>
  <use x="497.175781" y="704.273438" xlink:href="#a"/>
  <use x="521.636719" y="704.273438" xlink:href="#k"/>
  <use x="543.019531" y="704.273438" xlink:href="#c"/>
 </g>
</svg>
